<?xml version="1.0" encoding="utf-8"?>
<!-- Generator: Adobe Illustrator 19.0.0, SVG Export Plug-In . SVG Version: 6.00 Build 0)  -->
<!DOCTYPE svg PUBLIC "-//W3C//DTD SVG 1.1//EN" "http://www.w3.org/Graphics/SVG/1.1/DTD/svg11.dtd">
<svg version="1.1" id="Layer_1" xmlns="http://www.w3.org/2000/svg" xmlns:xlink="http://www.w3.org/1999/xlink" x="0px" y="0px"
	 viewBox="0 0 60 60" enable-background="new 0 0 60 60" xml:space="preserve">
<g id="XMLID_1_">
	<path id="XMLID_47_" fill="#404041" d="M35.7,54.3L35.7,54.3c-13.4,0-24.3-10.9-24.3-24.3v0c0-13.4,10.9-24.3,24.3-24.3h0
		C49.1,5.7,60,16.6,60,30v0C60,43.4,49.1,54.3,35.7,54.3z"/>
	<path id="XMLID_2_" fill="#ED3437" d="M58.9,19.9c-7.6-0.4-15.3-0.6-23.2-0.6s-15.6,0.2-23.2,0.6c-0.6,1.7-0.9,3.5-1,5.4L0,7.8
		L2,23l8,3.1l-8,1.2l2,6.1l7.4-5.1l0-0.1v5.3c0,0.3,0,0.7,0,1c3.9,1.9,8.2,3,12.8,3c1.8,0,3.6-0.2,5.3-0.5c0.2-0.1,0.5-0.1,0.8-0.2
		c1.7-0.3,3.5-0.5,5.4-0.5c1.8,0,3.6,0.2,5.4,0.5c0.2,0,0.4,0.1,0.7,0.1c1.7,0.3,3.5,0.5,5.4,0.5c4.6,0,8.9-1.1,12.8-3
		c0-0.3,0-0.7,0-1v-7.1C60,24.2,59.6,22,58.9,19.9z"/>
	<g id="XMLID_41_">
		<path id="XMLID_43_" fill="#F7F8DD" d="M30.8,29.8C30.8,29.8,30.8,29.8,30.8,29.8c0.1,0,0.1-0.1,0.1-0.2c0,0,0-0.1-0.1-0.1l0,0
			l-10.7-4l0,0c-0.1,0-0.2-0.1-0.4,0c-0.2,0.1-0.3,0.2-0.3,0.4c0,0.1,0,0.1,0,0.2c0.1,1.4,0.8,4.1,3.4,4.8
			C25.9,31.8,29.6,30.3,30.8,29.8z"/>
		<path id="XMLID_42_" fill="#F7F8DD" d="M40.6,29.8C40.6,29.8,40.6,29.8,40.6,29.8c-0.1,0-0.1-0.1-0.1-0.2c0,0,0-0.1,0.1-0.1l0,0
			l10.7-4l0,0c0.1,0,0.2-0.1,0.4,0c0.2,0.1,0.3,0.2,0.3,0.4c0,0.1,0,0.1,0,0.2c-0.1,1.4-0.8,4.1-3.4,4.8
			C45.5,31.8,41.7,30.3,40.6,29.8z"/>
	</g>
</g>
</svg>
